# AST/ASF file generated using VICON BodyLanguage
# -----------------------------------------------
:version 1.10
:name VICON
:units
  mass 1.0
  length 0.45
  angle deg
:documentation
   .ast/.asf automatically generated from VICON data using
   VICON BodyBuilder and BodyLanguage model FoxedUp or BRILLIANT.MOD
:root
   order TX TY TZ RX RY RZ
   axis XYZ
   position 0 0 0  
   orientation 0 0 0 
:bonedata
  begin
     id 1 
     name lhipjoint
     direction 0.64773 -0.699417 0.302095 
     length 2.48597 
     axis 0 0 0  XYZ
  end
  begin
     id 2 
     name lfemur
     direction 0.34202 -0.939693 0  
     length 6.71947  
     axis 0 0 20  XYZ
    dof rx ry rz
    limits (-160.0 20.0)
           (-70.0 70.0)
           (-60.0 70.0)
  end
  begin
     id 3 
     name ltibia
     direction 0.34202 -0.939693 0   
     length 8.08777   
     axis 0 0 20   XYZ
    dof rx
    limits (-10.0 170.0)
  end
  begin
     id 4 
     name lfoot
     direction 0.0808503 -0.222134 0.971658   
     length 2.08264   
     axis -90 7.62852e-016 20   XYZ
    dof rx rz
    limits (-45.0 90.0)
           (-70.0 20.0)
  end
  begin
     id 5 
     name ltoes
     direction 1.53502e-011 -4.22007e-011 1   
     length 1.04662   
     axis -90 7.62852e-016 20   XYZ
    dof rx
    limits (-90.0 20.0)
  end
  begin
     id 6 
     name rhipjoint
     direction -0.610924 -0.726792 0.313919   
     length 2.39233  
     axis 0 0 0  XYZ 
  end
  begin
     id 7 
     name rfemur
     direction -0.34202 -0.939693 0   
     length 6.96955   
     axis 0 0 -20   XYZ
    dof rx ry rz
    limits (-160.0 20.0)
           (-70.0 70.0)
           (-70.0 60.0)
  end
  begin
     id 8 
     name rtibia
     direction -0.34202 -0.939693 0   
     length 8.19584   
     axis 0 0 -20   XYZ
    dof rx
    limits (-10.0 170.0)
 end
 begin
     id 9 
     name rfoot
     direction -0.077777 -0.213691 0.9738   
     length 2.07539  
     axis -90 -7.62852e-016 -20   XYZ
    dof rx rz
    limits (-45.0 90.0)
           (-20.0 70.0)
  end
  begin
     id 10 
     name rtoes
     direction -1.53558e-011 -4.22006e-011 1   
     length 1.04381   
     axis -90 -7.62852e-016 -20   XYZ
    dof rx
    limits (-90.0 20.0)
  end
  begin
     id 11 
     name lowerback
     direction -0.00971646 0.996074 0.0879841   
     length 1.67643   
     axis 0 0 0   XYZ
    dof rx ry rz
    limits (-20.0 45.0)
           (-30.0 30.0)
           (-30.0 30.0)
  end
  begin
     id 12 
     name upperback
     direction 0.0127391 0.991676 0.128127   
     length 1.63741   
     axis 0 0 0   XYZ
    dof rx ry rz
    limits (-20.0 45.0)
           (-30.0 30.0)
           (-30.0 30.0)
  end
  begin
     id 13 
     name thorax
     direction 0.0167583 0.996049 0.0872067   
     length 1.65931   
     axis 0 0 0   XYZ
    dof rx ry rz
    limits (-20.0 45.0)
           (-30.0 30.0)
           (-30.0 30.0)
  end
  begin
     id 14 
     name lowerneck
     direction -0.0317829 0.998312 0.0486079   
     length 1.79021   
     axis 0 0 0   XYZ
    dof rx ry rz
    limits (-20.0 45.0)
           (-30.0 30.0)
           (-30.0 30.0)
  end
  begin
     id 15 
     name upperneck
     direction 0.0896851 0.972452 -0.215159   
     length 1.78797   
     axis 0 0 0   XYZ
    dof rx ry rz
    limits (-20.0 45.0)
           (-30.0 30.0)
           (-30.0 30.0)
  end
  begin
     id 16
     name head
     direction 0.0310949 0.996503 -0.0775582  
     length 1.81549  
     axis 0 0 0   XYZ
    dof rx ry rz
    limits (-20.0 45.0)
           (-30.0 30.0)
           (-30.0 30.0)
  end
  begin
     id 17 
     name lclavicle
     direction 0.853638 0.502051 -0.138733  
     length 3.31627  
     axis 0 0 0   XYZ
    dof ry rz
    limits (-20.0 10.0)
           (0.0 20.0)
  end
  begin
     id 18 
     name lhumerus
     direction 1 -4.48962e-011 -1.41788e-018   
     length 5.54893   
     axis 180 -30 -90   XYZ
    dof rx ry rz
    limits (-60.0 90.0)
           (-90.0 90.0)
           (-90.0 90.0)
  end
  begin
     id 19
     name lradius
     direction 1 -4.48962e-011 -4.95754e-027   
     length 3.02898   
     axis 180 -30 -90   XYZ
    dof rx
    limits (-10.0 170.0)
  end
  begin
     id 20
     name lwrist
     direction 1 -4.48952e-011 -1.03764e-026   
     length 1.51449   
     axis 9.09556e-015 90 90   XYZ
    dof ry
    limits (-180.0 0.0)
 end
  begin
     id 21 
     name lhand
     direction 1 -4.4902e-011 -2.07528e-026   
     length 0.640951   
     axis 1.3242e-014 90 90   XYZ
    dof rx rz
    limits (-90.0 90.0)
           (-45.0 45.0)
  end
  begin
     id 22 
     name lfingers
     direction 1 -4.49014e-011 -4.15056e-026   
     length 0.516751   
     axis 2.64841e-014 90 90   XYZ
    dof rx
    limits (0.0 90.0)
  end
  begin
     id 23
     name lthumb
     direction 0.707107 -6.35008e-011 0.707107   
     length 0.741954   
     axis -90 45 2.85299e-015   XYZ
    dof rx rz
    limits (-45.0 45.0)
           (-45.0 45.0)
  end
  begin
     id 24 
     name rclavicle
     direction -0.888531 0.455324 -0.0565039   
     length 3.20126  
     axis 0 0 0   XYZ 
    dof ry rz
    limits (-10.0 20.0)
           (-20.0 0.0)
  end
  begin
     id 25 
     name rhumerus
     direction -1 -4.48946e-011 -8.98298e-028  
     length 5.3519   
     axis 180 30 90   XYZ
    dof rx ry rz
    limits (-90.0 60.0)
           (-90.0 90.0)
           (-90.0 90.0)
  end
  begin
     id 26 
     name rradius
     direction -1 -4.4899e-011 -3.18779e-027   
     length 3.02531   
     axis 180 30 90   XYZ
    dof rx
    limits (-10.0 170.0)
  end
  begin
     id 27 
     name rwrist
     direction -1 -4.4897e-011 -1.03764e-026   
     length 1.51266   
     axis 9.09556e-015 -90 -90   XYZ
    dof ry
    limits (-180.0 0.0)
  end
  begin
     id 28
     name rhand
     direction -1 -4.48941e-011 -2.07528e-026   
     length 0.78389   
     axis 1.3242e-014 -90 -90   XYZ
    dof rx rz
    limits (-90.0 90.0)
           (-45.0 45.0)
  end
  begin
     id 29
     name rfingers
     direction -1 -4.49012e-011 -4.15056e-026   
     length 0.631992   
     axis 2.64841e-014 -90 -90   XYZ
    dof rx
    limits (0.0 90.0)
  end
  begin
     id 30
     name rthumb
     direction -0.707107 -6.3496e-011 0.707107   
     length 0.907418   
     axis -90 -45 -2.85299e-015   XYZ
    dof rx rz
    limits (-45.0 45.0)
           (-45.0 45.0)
  end
:hierarchy
  begin
    root lhipjoint rhipjoint lowerback
    lhipjoint lfemur
    lfemur ltibia
    ltibia lfoot
    lfoot ltoes
    rhipjoint rfemur
    rfemur rtibia
    rtibia rfoot
    rfoot rtoes
    lowerback upperback
    upperback thorax
    thorax lowerneck lclavicle rclavicle
    lowerneck upperneck
    upperneck head
    lclavicle lhumerus
    lhumerus lradius
    lradius lwrist
    lwrist lhand lthumb
    lhand lfingers
    rclavicle rhumerus
    rhumerus rradius
    rradius rwrist
    rwrist rhand rthumb
    rhand rfingers
  end

#!OML:ASF E:\Style3\Style3.ASF
:FULLY-SPECIFIED
:DEGREES
115
root -0.421303 17.8681 0.477534 -114.674 88.3724 -130.293
lowerback -9.4127 -1.59477 -0.60814
upperback -9.07404 -1.60349 1.75621
thorax -4.12136 -0.524836 2.06242
lowerneck -8.46438 -2.36643 -6.28745
upperneck 10.9205 -3.65511 11.4586
head 4.98863 -1.29371 4.37291
rclavicle 1.09829e-014 -3.06128e-014
rhumerus -55.6385 45.1409 -107.696
rradius 84.7138
rwrist -14.4246
rhand -3.59125 22.3031
rfingers 7.12502
rthumb 22.1464 -6.44842
lclavicle 1.09829e-014 -3.06128e-014
lhumerus -48.9939 -36.265 106.444
lradius 87.0262
lwrist 46.1483
lhand -0.244351 21.6265
lfingers 7.12502
lthumb 25.3563 49.9606
rfemur -15.7971 11.4594 17.1714
rtibia 12.7998
rfoot -11.7523 -21.3785
rtoes -16.9247
lfemur -9.46927 -15.2786 -12.8423
ltibia 7.15625e-015
lfoot -6.33183 17.1597
ltoes -14.2287
116
root -0.422855 17.8682 0.466717 -132.273 88.0831 -147.727
lowerback -9.42064 -1.7672 -0.540819
upperback -9.05116 -1.84017 1.67138
thorax -4.08748 -0.651084 1.92194
lowerneck -8.52336 -2.39052 -6.24986
upperneck 11.0625 -3.69099 11.3662
head 5.04312 -1.31053 4.33571
rclavicle 2.26118e-015 2.10712e-014
rhumerus -55.1646 45.8412 -108.079
rradius 84.4366
rwrist -14.4542
rhand -2.94687 22.1259
rfingers 7.12502
rthumb 22.765 -6.55093
lclavicle 2.26118e-015 2.10712e-014
lhumerus -48.4941 -36.8196 106.643
lradius 87.3597
lwrist 47.8394
lhand 0.685614 22.2207
lfingers 7.12502
lthumb 26.2469 50.4254
rfemur -15.4755 11.2357 17.0752
rtibia 12.7696
rfoot -11.9327 -21.7213
rtoes -16.6998
lfemur -9.45011 -15.9106 -12.9636
ltibia -2.22639e-014
lfoot -6.35042 17.217
ltoes -14.2348
117
root -0.428737 17.8676 0.463042 -130.655 88.1086 -146.06
lowerback -9.42338 -1.72329 -0.425128
upperback -9.10694 -1.78334 1.65861
thorax -4.15171 -0.626387 1.84806
lowerneck -8.5678 -2.43327 -6.34106
upperneck 11.2105 -3.74773 11.3715
head 5.10296 -1.33705 4.35014
rclavicle 1.27471e-014 7.7526e-015
rhumerus -54.7154 46.4543 -108.435
rradius 84.1772
rwrist -14.4075
rhand -2.16194 22.0387
rfingers 7.12502
rthumb 23.5181 -6.54363
lclavicle 1.27471e-014 7.7526e-015
lhumerus -48.0899 -37.0662 106.803
lradius 87.6959
lwrist 49.1414
lhand 1.685 22.1413
lfingers 7.12502
lthumb 27.2033 50.2
rfemur -15.4865 11.1382 17.1109
rtibia 12.8244
rfoot -11.9486 -21.56
rtoes -16.7444
lfemur -9.40178 -15.8597 -12.9663
ltibia -2.62396e-014
lfoot -6.53567 17.1964
ltoes -13.8078
118
root -0.432804 17.8677 0.461726 -128.265 88.109 -143.637
lowerback -9.44021 -1.70253 -0.346113
upperback -9.16451 -1.75285 1.71218
thorax -4.20614 -0.610586 1.86188
lowerneck -8.65386 -2.47176 -6.53803
upperneck 11.3861 -3.79017 11.4149
head 5.17967 -1.35737 4.39589
rclavicle 2.28602e-015 3.37934e-015
rhumerus -54.1836 47.213 -108.715
rradius 83.9067
rwrist -14.3432
rhand -1.57235 21.9669
rfingers 7.12502
rthumb 24.0835 -6.54172
lclavicle 2.28602e-015 3.37934e-015
lhumerus -47.5835 -37.3599 106.96
lradius 87.9442
lwrist 50.4018
lhand 2.51166 21.9257
lfingers 7.12502
lthumb 27.9938 49.8581
rfemur -15.4931 11.0675 17.184
rtibia 12.8681
rfoot -11.9657 -21.4425
rtoes -16.7568
lfemur -9.36577 -15.8015 -12.9247
ltibia -2.70347e-014
lfoot -6.32452 17.1858
ltoes -14.2476
119
root -0.436647 17.8684 0.461817 -126.878 88.1744 -142.239
lowerback -9.51256 -1.7038 -0.397984
upperback -9.20066 -1.74519 1.78246
thorax -4.20196 -0.599536 1.96341
lowerneck -8.68086 -2.49154 -6.69986
upperneck 11.4354 -3.7975 11.3972
head 5.2025 -1.36829 4.41743
rclavicle 2.48481e-017 1.39149e-015
rhumerus -53.5903 48.0591 -108.859
rradius 83.7979
rwrist -14.2169
rhand -1.14715 21.5463
rfingers 7.12502
rthumb 24.4912 -6.9078
lclavicle 2.48481e-017 1.39149e-015
lhumerus -46.8155 -37.7866 106.991
lradius 88.1067
lwrist 51.481
lhand 3.62177 22.1106
lfingers 7.12502
lthumb 29.0545 49.865
rfemur -15.4958 11.0437 17.1615
rtibia 12.8456
rfoot -11.9887 -21.3151
rtoes -16.5569
lfemur -9.34975 -15.7271 -12.9524
ltibia 3.97569e-015
lfoot -6.09638 17.1317
ltoes -14.7586
120
root -0.438136 17.871 0.462023 -122.451 88.3031 -138.088
lowerback -9.96429 -1.66882 -0.425565
upperback -9.28603 -1.68136 1.81641
thorax -4.04667 -0.559097 2.00894
lowerneck -8.67969 -2.54569 -6.69042
upperneck 11.4579 -3.86087 11.2774
head 5.21278 -1.40681 4.37265
rclavicle -3.23025e-015 1.39149e-015
rhumerus -52.8852 48.7677 -108.898
rradius 83.7463
rwrist -14.1607
rhand -0.699636 21.2749
rfingers 7.12502
rthumb 24.9201 -7.12045
lclavicle -3.23025e-015 1.39149e-015
lhumerus -45.9864 -38.2305 106.878
lradius 88.2943
lwrist 52.4443
lhand 4.62371 22.4854
lfingers 7.12502
lthumb 30.011 50.0707
rfemur -15.8297 11.0368 17.074
rtibia 12.7921
rfoot -11.8644 -21.1486
rtoes -16.4431
lfemur -9.62285 -15.5155 -12.9116
ltibia 1.19271e-014
lfoot -6.28432 17.1189
ltoes -14.0112
121
root -0.442937 17.8708 0.463956 -115.598 88.3697 -131.446
lowerback -10.265 -1.60951 -0.384813
upperback -9.38495 -1.58996 1.85665
thorax -3.99214 -0.507891 2.02897
lowerneck -8.75995 -2.61712 -6.68326
upperneck 11.5763 -3.95041 11.1519
head 5.26887 -1.45407 4.32512
rclavicle -1.14301e-015 3.37934e-015
rhumerus -52.0235 49.3713 -108.789
rradius 83.6709
rwrist -14.2391
rhand -0.181342 21.2063
rfingers 7.12502
rthumb 25.4167 -7.11926
lclavicle -1.14301e-015 3.37934e-015
lhumerus -45.1819 -38.7179 106.748
lradius 88.5394
lwrist 53.4918
lhand 4.99936 22.5403
lfingers 7.12502
lthumb 30.3694 50.06
rfemur -16.1085 11.0615 17.1001
rtibia 12.7557
rfoot -11.6196 -21.0645
rtoes -16.7737
lfemur -9.82905 -15.284 -12.8006
ltibia 1.19271e-014
lfoot -6.51513 17.115
ltoes -13.1321
122
root -0.446622 17.8717 0.463192 -110.11 88.3374 -125.935
lowerback -10.3211 -1.55583 -0.261415
upperback -9.43658 -1.51965 1.88698
thorax -4.02219 -0.475244 1.99577
lowerneck -8.81197 -2.68941 -6.72538
upperneck 11.7011 -4.04306 11.0885
head 5.32448 -1.50141 4.30578
rclavicle -1.20762e-014 -5.36719e-015
rhumerus -51.1069 49.8995 -108.558
rradius 83.7374
rwrist -14.2764
rhand 0.362804 21.069
rfingers 7.12502
rthumb 25.9378 -7.18141
lclavicle -1.20762e-014 -5.36719e-015
lhumerus -44.3657 -39.1799 106.551
lradius 88.8079
lwrist 54.4353
lhand 5.28467 22.4908
lfingers 7.12502
lthumb 30.6415 49.96
rfemur -16.0721 11.0424 17.2249
rtibia 12.6916
rfoot -11.6262 -20.8756
rtoes -16.6444
lfemur -9.76681 -15.152 -12.7111
ltibia -4.77083e-015
lfoot -6.44248 17.1006
ltoes -13.3752
123
root -0.45357 17.8724 0.463158 -111.861 88.3278 -127.541
lowerback -10.1517 -1.59413 -0.289925
upperback -9.51326 -1.56337 1.90219
thorax -4.19434 -0.492171 2.02937
lowerneck -8.79996 -2.75632 -6.82224
upperneck 11.8538 -4.12921 11.0593
head 5.37873 -1.54687 4.30781
rclavicle 1.12313e-014 -1.19271e-015
rhumerus -50.1907 50.3416 -108.276
rradius 83.844
rwrist -14.0411
rhand 0.888433 20.9806
rfingers 7.12502
rthumb 26.4411 -7.19512
lclavicle 1.12313e-014 -1.19271e-015
lhumerus -43.5672 -39.4158 106.276
lradius 89.1129
lwrist 55.0767
lhand 5.43364 22.4582
lfingers 7.12502
lthumb 30.7835 49.9007
rfemur -15.8877 11.0202 17.2456
rtibia 12.6157
rfoot -11.5118 -20.9053
rtoes -17.0696
lfemur -9.63543 -15.2187 -12.7625
ltibia -2.22639e-014
lfoot -6.22842 17.1435
ltoes -14.2083
124
root -0.455851 17.8683 0.46341 -114.585 88.2889 -129.756
lowerback -9.73487 -1.61337 -0.324168
upperback -9.47336 -1.59576 1.9166
thorax -4.37716 -0.509538 2.06997
lowerneck -8.77881 -2.84809 -6.91985
upperneck 12.082 -4.25102 11.0035
head 5.45764 -1.61006 4.29945
rclavicle -5.46658e-016 -4.57205e-015
rhumerus -49.2654 50.6923 -107.902
rradius 83.9879
rwrist -13.797
rhand 1.04824 20.7919
rfingers 7.12502
rthumb 26.594 -7.36068
lclavicle -5.46658e-016 -4.57205e-015
lhumerus -42.7521 -39.6248 105.983
lradius 89.4481
lwrist 55.5565
lhand 5.51426 22.3788
lfingers 7.12502
lthumb 30.8604 49.8067
rfemur -15.2896 11.0431 17.3536
rtibia 12.5939
rfoot -11.6637 -20.951
rtoes -16.9765
lfemur -9.07907 -15.3584 -12.8948
ltibia -4.77083e-015
lfoot -6.25013 17.1306
ltoes -14.4014
125
root -0.441046 17.8684 0.45438 -102.143 88.4421 -117.733
lowerback -10.5758 -1.47925 -0.141487
upperback -9.55827 -1.40951 1.91723
thorax -4.02054 -0.418337 1.96442
lowerneck -8.85929 -2.95001 -6.9683
upperneck 12.2919 -4.38254 10.904
head 5.54773 -1.67671 4.26679
rclavicle -3.67752e-015 1.98785e-015
rhumerus -48.1822 50.9717 -107.338
rradius 84.243
rwrist -13.8039
rhand 1.25839 20.5862
rfingers 7.12502
rthumb 26.7951 -7.53578
lclavicle -3.67752e-015 1.98785e-015
lhumerus -41.7393 -39.7788 105.557
lradius 89.7295
lwrist 55.8333
lhand 5.4393 22.1634
lfingers 7.12502
lthumb 30.7889 49.6049
rfemur -15.8156 10.9922 17.2366
rtibia 12.6137
rfoot -11.6339 -20.5172
rtoes -16.9861
lfemur -9.41057 -14.9415 -12.856
ltibia -3.97569e-014
lfoot -6.52624 17.0493
ltoes -13.2791
126
root -0.444953 17.8667 0.454649 -107.724 88.4705 -122.968
lowerback -10.2959 -1.55216 -0.261862
upperback -9.53697 -1.50361 1.94281
thorax -4.14315 -0.460522 2.05733
lowerneck -9.00236 -3.0232 -7.03798
upperneck 12.5787 -4.48078 10.8595
head 5.67112 -1.72091 4.25845
rclavicle 2.08227e-014 2.78299e-015
rhumerus -47.1322 51.2015 -106.737
rradius 84.5702
rwrist -13.8995
rhand 1.50517 20.5038
rfingers 7.12502
rthumb 27.0313 -7.58175
lclavicle 2.08227e-014 2.78299e-015
lhumerus -40.7234 -39.7545 105.05
lradius 90.0577
lwrist 56.1612
lhand 5.38643 21.9198
lfingers 7.12502
lthumb 30.7385 49.3707
rfemur -15.414 10.9844 17.2348
rtibia 12.6388
rfoot -11.6575 -20.6285
rtoes -16.8176
lfemur -9.06391 -15.1171 -13.0284
ltibia -2.46493e-014
lfoot -6.62966 17.1083
ltoes -12.9968
